<?xml version="1.0" encoding="UTF-8" standalone="no"?>
<!-- Created with Inkscape (http://www.inkscape.org/) -->
<svg
   xmlns:dc="http://purl.org/dc/elements/1.1/"
   xmlns:cc="http://creativecommons.org/ns#"
   xmlns:rdf="http://www.w3.org/1999/02/22-rdf-syntax-ns#"
   xmlns:svg="http://www.w3.org/2000/svg"
   xmlns="http://www.w3.org/2000/svg"
   xmlns:sodipodi="http://sodipodi.sourceforge.net/DTD/sodipodi-0.dtd"
   xmlns:inkscape="http://www.inkscape.org/namespaces/inkscape"
   width="73.961441"
   height="87.489075"
   id="svg2"
   sodipodi:version="0.32"
   inkscape:version="0.46"
   version="1.0"
   sodipodi:docname="Android_robot_2.svg"
   inkscape:output_extension="org.inkscape.output.svg.inkscape">
  <defs
     id="defs4">
    <inkscape:perspective
       sodipodi:type="inkscape:persp3d"
       inkscape:vp_x="0 : 526.18109 : 1"
       inkscape:vp_y="0 : 1000 : 0"
       inkscape:vp_z="744.09448 : 526.18109 : 1"
       inkscape:persp3d-origin="372.04724 : 350.78739 : 1"
       id="perspective10" />
    <inkscape:perspective
       id="perspective2824"
       inkscape:persp3d-origin="0.5 : 0.33333333 : 1"
       inkscape:vp_z="1 : 0.5 : 1"
       inkscape:vp_y="0 : 1000 : 0"
       inkscape:vp_x="0 : 0.5 : 1"
       sodipodi:type="inkscape:persp3d" />
    <inkscape:perspective
       id="perspective2838"
       inkscape:persp3d-origin="0.5 : 0.33333333 : 1"
       inkscape:vp_z="1 : 0.5 : 1"
       inkscape:vp_y="0 : 1000 : 0"
       inkscape:vp_x="0 : 0.5 : 1"
       sodipodi:type="inkscape:persp3d" />
    <inkscape:perspective
       id="perspective2463"
       inkscape:persp3d-origin="372.04724 : 350.78739 : 1"
       inkscape:vp_z="744.09448 : 526.18109 : 1"
       inkscape:vp_y="0 : 1000 : 0"
       inkscape:vp_x="0 : 526.18109 : 1"
       sodipodi:type="inkscape:persp3d" />
  </defs>
  <sodipodi:namedview
     id="base"
     pagecolor="#ffffff"
     bordercolor="#666666"
     borderopacity="1.0"
     inkscape:pageopacity="0.0"
     inkscape:pageshadow="2"
     inkscape:zoom="2.8"
     inkscape:cx="40.697058"
     inkscape:cy="56.482437"
     inkscape:document-units="px"
     inkscape:current-layer="layer1"
     showgrid="false"
     inkscape:window-width="1024"
     inkscape:window-height="746"
     inkscape:window-x="0"
     inkscape:window-y="0"
     showborder="false" />
  <metadata
     id="metadata7">
    <rdf:RDF>
      <cc:Work
         rdf:about="">
        <dc:format>image/svg+xml</dc:format>
        <dc:type
           rdf:resource="http://purl.org/dc/dcmitype/StillImage" />
        <dc:title />
      </cc:Work>
    </rdf:RDF>
  </metadata>
  <g
     inkscape:label="Calque 1"
     inkscape:groupmode="layer"
     id="layer1"
     transform="translate(-218.03859,-486.98919)">
    <path
       style="opacity:1;fill:#a3c639;fill-opacity:1;stroke:none;stroke-width:0.125;stroke-linecap:square;stroke-linejoin:miter;stroke-miterlimit:4;stroke-dasharray:none;stroke-dashoffset:0;stroke-opacity:1"
       d="M 240.16359,487.10526 C 240.09877,487.1221 240.03051,487.1808 239.94484,487.23026 L 239.75734,487.32401 C 239.58599,487.42294 239.48002,487.52668 239.50734,487.57401 L 243.56984,494.63651 C 236.17558,498.26342 231.16359,505.36474 231.16359,513.51151 L 254.81984,513.51151 L 278.47609,513.51151 C 278.47609,505.36474 273.4641,498.26342 266.06984,494.63651 L 270.13234,487.57401 C 270.15966,487.52668 270.05369,487.42294 269.88234,487.32401 L 269.69484,487.23026 C 269.52349,487.13133 269.37841,487.08918 269.35109,487.13651 L 265.22609,494.26151 C 262.08511,492.86361 258.55397,492.07401 254.81984,492.07401 C 251.08571,492.07401 247.55457,492.86361 244.41359,494.26151 L 240.28859,487.13651 C 240.27493,487.11285 240.22841,487.08843 240.16359,487.10526 z M 243.56984,501.26151 C 244.80931,501.26151 245.81984,502.27204 245.81984,503.51151 C 245.81983,504.75098 244.80931,505.73026 243.56984,505.73026 C 242.33036,505.73026 241.31984,504.75098 241.31984,503.51151 C 241.31984,502.27203 242.33036,501.26151 243.56984,501.26151 z M 266.06984,501.26151 C 267.30931,501.26151 268.31984,502.27204 268.31984,503.51151 C 268.31983,504.75098 267.30931,505.73026 266.06984,505.73026 C 264.83036,505.73026 263.81984,504.75098 263.81984,503.51151 C 263.81984,502.27203 264.83036,501.26151 266.06984,501.26151 z"
       id="path2469" />
    <path
       style="opacity:1;fill:#a4c639;fill-opacity:1;stroke:none;stroke-width:0.125;stroke-linecap:square;stroke-linejoin:miter;stroke-miterlimit:4;stroke-dasharray:none;stroke-dashoffset:0;stroke-opacity:1"
       d="M 230.97609,516.27044 L 230.97609,552.1633 C 230.97609,553.94401 233.12841,556.2749 234.90913,556.2749 L 240.53859,556.2749 L 240.53859,568.51151 C 240.53859,571.62776 242.80769,574.13651 245.63234,574.13651 C 248.45699,574.13651 250.72609,571.62776 250.72609,568.51151 L 250.72609,556.2749 L 258.91359,556.2749 L 258.91359,568.51151 C 258.91359,571.62776 261.18269,574.13651 264.00734,574.13651 C 266.83199,574.13651 269.13234,571.62776 269.13234,568.51151 L 269.13234,556.2749 L 274.73055,556.2749 C 276.51126,556.2749 278.66358,553.94401 278.66359,552.1633 L 278.66359,516.27044 L 230.97609,516.27044 z"
       id="rect3241"
       sodipodi:nodetypes="cccccsccccscccccc" />
    <g
       id="g3258"
       style="opacity:1;fill:#a4c639;fill-opacity:1;stroke:none;stroke-width:0.125;stroke-miterlimit:4;stroke-dasharray:none;stroke-opacity:1"
       transform="translate(0,83.928571)">
      <rect
         ry="5.625"
         rx="5.0986433"
         y="431.58582"
         x="218.02924"
         height="32.544643"
         width="10.197287"
         id="rect3246"
         style="opacity:0.99115044;fill:#a4c639;fill-opacity:1;stroke:none;stroke-width:0.125;stroke-linecap:square;stroke-linejoin:miter;stroke-miterlimit:4;stroke-dasharray:none;stroke-dashoffset:0;stroke-opacity:1" />
      <rect
         style="opacity:0.99115044;fill:#a4c639;fill-opacity:1;stroke:none;stroke-width:0.125;stroke-linecap:square;stroke-linejoin:miter;stroke-miterlimit:4;stroke-dasharray:none;stroke-dashoffset:0;stroke-opacity:1"
         id="rect3248"
         width="10.197287"
         height="32.544643"
         x="281.42209"
         y="431.58582"
         rx="5.0986433"
         ry="5.625" />
    </g>
  </g>
</svg>
