<?xml version="1.0" encoding="UTF-8" standalone="no"?>
<!-- Created with Inkscape (http://www.inkscape.org/) -->
<svg
   xmlns:svg="http://www.w3.org/2000/svg"
   xmlns="http://www.w3.org/2000/svg"
   version="1.0"
   width="540"
   height="180"
   id="svg2"
   xml:space="preserve"><defs
     id="defs5"><clipPath
       id="clipPath17"><path
         d="M 0,144 L 432,144 L 432,0 L 0,0 L 0,144 z"
         id="path19" /></clipPath></defs><g
     transform="matrix(1.25,0,0,-1.25,0,180)"
     id="g11"><g
       id="g13"><g
         clip-path="url(#clipPath17)"
         id="g15"><g
           transform="translate(247.4199,55.1191)"
           id="g21"><path
             d="M 0,0 L -0.593,0 C -3.64,0 -4.063,0.762 -4.063,4.655 L -4.063,23.021 L 0,23.021 C 8.802,23.021 10.41,16.59 10.41,11.596 C 10.41,6.433 8.802,0 0,0 M -35.717,11.766 L -35.717,23.021 L -32.247,23.021 C -28.438,23.021 -26.745,20.398 -26.745,17.352 C -26.745,14.389 -28.438,11.766 -32.247,11.766 L -35.717,11.766 z M -0.254,25.561 L -15.404,25.561 L -15.404,23.953 C -10.665,23.953 -9.903,22.938 -9.903,16.928 L -9.903,6.094 C -9.903,0.085 -10.665,-1.016 -15.404,-1.016 C -19.043,-0.508 -21.498,1.439 -24.884,5.163 L -28.776,9.395 C -23.529,10.326 -20.736,13.627 -20.736,17.352 C -20.736,22.006 -24.714,25.561 -32.162,25.561 L -47.059,25.561 L -47.059,23.953 C -42.319,23.953 -41.558,22.938 -41.558,16.928 L -41.558,6.094 C -41.558,0.085 -42.319,-1.016 -47.059,-1.016 L -47.059,-2.623 L -30.216,-2.623 L -30.216,-1.016 C -34.955,-1.016 -35.717,0.085 -35.717,6.094 L -35.717,9.141 L -34.278,9.141 L -24.884,-2.623 L -0.254,-2.623 C 11.85,-2.623 17.097,3.809 17.097,11.512 C 17.097,19.213 11.85,25.561 -0.254,25.561"
             id="path23"
             style="fill:#21759b;fill-opacity:1;fill-rule:nonzero;stroke:none" /></g><g
           transform="translate(100.438,89.3389)"
           id="g25"><path
             d="M 0,0 C 0.161,-1.191 0.251,-2.47 0.251,-3.847 C 0.251,-7.642 -0.459,-11.909 -2.594,-17.246 L -14.02,-50.283 C -2.898,-43.799 4.582,-31.749 4.582,-17.947 C 4.582,-11.443 2.919,-5.328 0,0 M -32.171,-21.22 L -43.397,-53.836 C -40.045,-54.822 -36.5,-55.36 -32.829,-55.36 C -28.472,-55.36 -24.293,-54.608 -20.405,-53.239 C -20.505,-53.079 -20.597,-52.909 -20.673,-52.724 L -32.171,-21.22 z M -7.574,-16.061 C -7.574,-11.436 -9.235,-8.234 -10.658,-5.743 C -12.554,-2.66 -14.333,-0.052 -14.333,3.031 C -14.333,6.47 -11.725,9.671 -8.05,9.671 C -7.884,9.671 -7.727,9.651 -7.566,9.641 C -14.222,15.739 -23.089,19.463 -32.829,19.463 C -45.899,19.463 -57.396,12.756 -64.086,2.601 C -63.208,2.573 -62.38,2.556 -61.678,2.556 C -57.766,2.556 -51.708,3.031 -51.708,3.031 C -49.692,3.149 -49.454,0.187 -51.468,-0.052 C -51.468,-0.052 -53.496,-0.289 -55.75,-0.407 L -42.127,-40.931 L -33.939,-16.377 L -39.767,-0.407 C -41.783,-0.289 -43.691,-0.052 -43.691,-0.052 C -45.708,0.067 -45.471,3.149 -43.454,3.031 C -43.454,3.031 -37.277,2.556 -33.601,2.556 C -29.689,2.556 -23.629,3.031 -23.629,3.031 C -21.613,3.149 -21.375,0.187 -23.391,-0.052 C -23.391,-0.052 -25.42,-0.289 -27.672,-0.407 L -14.153,-40.622 L -10.42,-28.154 C -8.524,-23.293 -7.574,-19.262 -7.574,-16.061 M -70.239,-17.947 C -70.239,-32.755 -61.634,-45.553 -49.154,-51.616 L -67,-2.722 C -69.075,-7.375 -70.239,-12.523 -70.239,-17.947"
             id="path27"
             style="fill:#464646;fill-opacity:1;fill-rule:nonzero;stroke:none" /></g><g
           transform="translate(26,71.3916)"
           id="g29"><path
             d="M 0,0 C 0,22.943 18.666,41.608 41.609,41.608 C 64.553,41.608 83.22,22.943 83.22,0 C 83.22,-22.944 64.553,-41.611 41.609,-41.611 C 18.666,-41.611 0,-22.944 0,0 M -2,0 C -2,-24.048 17.563,-43.611 41.609,-43.611 C 65.656,-43.611 85.22,-24.048 85.22,0 C 85.22,24.046 65.656,43.608 41.609,43.608 C 17.563,43.608 -2,24.046 -2,0"
             id="path31"
             style="fill:#464646;fill-opacity:1;fill-rule:nonzero;stroke:none" /></g><g
           transform="translate(153.2197,63.752)"
           id="g33"><path
             d="M 0,0 L 5.84,17.268 C 7.533,22.261 6.771,23.699 1.354,23.699 L 1.354,25.393 L 17.267,25.393 L 17.267,23.699 C 11.935,23.699 10.665,22.43 8.549,16.251 L -1.101,-12.695 L -2.2,-12.695 L -10.834,13.797 L -19.636,-12.695 L -20.736,-12.695 L -30.131,16.251 C -32.162,22.43 -33.517,23.699 -38.426,23.699 L -38.426,25.393 L -19.636,25.393 L -19.636,23.699 C -24.63,23.699 -25.984,22.515 -24.206,17.268 L -18.536,0 L -9.987,25.393 L -8.379,25.393 L 0,0 z"
             id="path35"
             style="fill:#21759b;fill-opacity:1;fill-rule:nonzero;stroke:none" /></g><g
           transform="translate(181.9951,79.1563)"
           id="g37"><path
             d="M 0,0 C -7.786,0 -10.495,-7.024 -10.495,-12.525 C -10.495,-18.112 -7.786,-25.053 0,-25.053 C 7.872,-25.053 10.58,-18.112 10.58,-12.525 C 10.58,-7.024 7.872,0 0,0 M 0,-27.761 C -9.31,-27.761 -16.928,-20.905 -16.928,-12.525 C -16.928,-4.231 -9.31,2.625 0,2.625 C 9.311,2.625 16.928,-4.231 16.928,-12.525 C 16.928,-20.905 9.311,-27.761 0,-27.761"
             id="path39"
             style="fill:#21759b;fill-opacity:1;fill-rule:nonzero;stroke:none" /></g><g
           transform="translate(283.5586,86.0977)"
           id="g41"><path
             d="M 0,0 L -4.824,0 L -4.824,-14.728 L 0,-14.728 C 4.74,-14.728 6.94,-11.427 6.94,-7.449 C 6.94,-3.387 4.74,0 0,0 M 1.862,-31.909 L 1.862,-33.602 L -17.52,-33.602 L -17.52,-31.909 C -11.849,-31.909 -10.833,-30.471 -10.833,-22.006 L -10.833,-8.465 C -10.833,0 -11.849,1.354 -17.52,1.354 L -17.52,3.047 L 0,3.047 C 8.718,3.047 13.543,-1.439 13.543,-7.449 C 13.543,-13.289 8.718,-17.859 0,-17.859 L -4.824,-17.859 L -4.824,-22.006 C -4.824,-30.471 -3.809,-31.909 1.862,-31.909"
             id="path43"
             style="fill:#464646;fill-opacity:1;fill-rule:nonzero;stroke:none" /></g><g
           transform="translate(310.3896,66.8848)"
           id="g45"><path
             d="M 0,0 L 0,11.256 L 3.47,11.256 C 7.278,11.256 8.972,8.633 8.972,5.586 C 8.972,2.623 7.278,0 3.47,0 L 0,0 z M 44.856,-6.434 L 44.434,-7.957 C 43.672,-10.75 42.74,-11.766 36.731,-11.766 L 35.546,-11.766 C 31.146,-11.766 30.384,-10.75 30.384,-4.74 L 30.384,-0.848 C 36.985,-0.848 37.493,-1.439 37.493,-5.841 L 39.102,-5.841 L 39.102,6.771 L 37.493,6.771 C 37.493,2.369 36.985,1.777 30.384,1.777 L 30.384,11.256 L 35.038,11.256 C 41.048,11.256 41.979,10.24 42.74,7.447 L 43.164,5.84 L 44.518,5.84 L 43.926,13.795 L 19.042,13.795 L 19.042,12.188 C 23.781,12.188 24.543,11.172 24.543,5.162 L 24.543,-5.672 C 24.543,-11.169 23.896,-12.554 20.159,-12.751 C 16.607,-12.209 14.169,-10.271 10.833,-6.603 L 6.939,-2.371 C 12.188,-1.439 14.98,1.861 14.98,5.586 C 14.98,10.24 11.003,13.795 3.555,13.795 L -11.342,13.795 L -11.342,12.188 C -6.603,12.188 -5.841,11.172 -5.841,5.162 L -5.841,-5.672 C -5.841,-11.681 -6.603,-12.781 -11.342,-12.781 L -11.342,-14.389 L 5.501,-14.389 L 5.501,-12.781 C 0.762,-12.781 0,-11.681 0,-5.672 L 0,-2.625 L 1.438,-2.625 L 10.833,-14.389 L 45.618,-14.389 L 46.126,-6.434 L 44.856,-6.434 z"
             id="path47"
             style="fill:#464646;fill-opacity:1;fill-rule:nonzero;stroke:none" /></g><g
           transform="translate(372.4277,51.3955)"
           id="g49"><path
             d="M 0,0 C -3.386,0 -6.349,1.777 -7.618,2.878 C -8.041,2.454 -8.803,1.185 -8.972,0 L -10.58,0 L -10.58,11.68 L -8.888,11.68 C -8.21,6.094 -4.317,2.793 0.677,2.793 C 3.385,2.793 5.586,4.316 5.586,6.855 C 5.586,9.056 3.639,10.749 0.169,12.356 L -4.655,14.642 C -8.041,16.251 -10.58,19.044 -10.58,22.768 C -10.58,26.83 -6.771,30.3 -1.523,30.3 C 1.27,30.3 3.639,29.284 5.078,28.1 C 5.501,28.438 5.924,29.37 6.179,30.386 L 7.786,30.386 L 7.786,20.397 L 6.009,20.397 C 5.416,24.376 3.216,27.677 -1.27,27.677 C -3.64,27.677 -5.841,26.322 -5.841,24.206 C -5.841,22.006 -4.063,20.821 0,18.959 L 4.654,16.674 C 8.718,14.728 10.325,11.595 10.325,9.056 C 10.325,3.724 5.67,0 0,0"
             id="path51"
             style="fill:#464646;fill-opacity:1;fill-rule:nonzero;stroke:none" /></g><g
           transform="translate(398.4951,51.3955)"
           id="g53"><path
             d="M 0,0 C -3.386,0 -6.349,1.777 -7.618,2.878 C -8.041,2.454 -8.803,1.185 -8.972,0 L -10.58,0 L -10.58,11.68 L -8.888,11.68 C -8.21,6.094 -4.317,2.793 0.677,2.793 C 3.385,2.793 5.586,4.316 5.586,6.855 C 5.586,9.056 3.639,10.749 0.169,12.356 L -4.655,14.642 C -8.041,16.251 -10.58,19.044 -10.58,22.768 C -10.58,26.83 -6.771,30.3 -1.523,30.3 C 1.27,30.3 3.639,29.284 5.078,28.1 C 5.501,28.438 5.924,29.37 6.178,30.386 L 7.786,30.386 L 7.786,20.397 L 6.009,20.397 C 5.416,24.376 3.216,27.677 -1.27,27.677 C -3.64,27.677 -5.841,26.322 -5.841,24.206 C -5.841,22.006 -4.063,20.821 0,18.959 L 4.654,16.674 C 8.718,14.728 10.325,11.595 10.325,9.056 C 10.325,3.724 5.67,0 0,0"
             id="path55"
             style="fill:#464646;fill-opacity:1;fill-rule:nonzero;stroke:none" /></g></g></g></g></svg>